<?xml version="1.0" encoding="utf-8"?>
<!-- Generator: Adobe Illustrator 19.0.0, SVG Export Plug-In . SVG Version: 6.00 Build 0)  -->
<svg version="1.1" id="Layer_1" xmlns="http://www.w3.org/2000/svg" xmlns:xlink="http://www.w3.org/1999/xlink" x="0px" y="0px"
	 viewBox="0 0 500 500" style="enable-background:new 0 0 500 500;" xml:space="preserve">
<g>
	<path d="M244.3,169.1l11,33.9H291l-28.9,21l11,33.9l-28.9-21l-28.9,21l11-33.9l-28.9-21h35.7L244.3,169.1z M310.8,217
		c0,36.7-29.8,66.5-66.5,66.5s-66.5-29.8-66.5-66.5s29.8-66.5,66.5-66.5S310.8,180.3,310.8,217z M244.3,139.2
		c-43,0-77.9,34.9-77.9,77.9s34.9,77.9,77.9,77.9s77.9-34.9,77.9-77.9C322.1,174,287.3,139.2,244.3,139.2z"/>
	<g>
		<path d="M426,327.6c0.8-0.1,1.4-0.5,1.4-1.5c0-1.1-0.6-1.6-1.9-1.6h-2.1l0.1,5.5h0.8v-2.4h0.9l1.5,2.4h0.9L426,327.6z
			 M424.3,326.9v-1.7h1.1c0.6,0,1.2,0.1,1.2,0.8c0,0.9-0.7,0.9-1.4,0.9H424.3z"/>
		<path d="M425.3,322.6c-2.6,0-4.7,2-4.7,4.7s2.2,4.7,4.7,4.7c2.6,0,4.7-2,4.7-4.7C430,324.7,427.9,322.6,425.3,322.6z M425.3,331.3
			c-2.2,0-3.9-1.8-3.9-4s1.7-4,3.9-4c2.2,0,3.9,1.7,3.9,4S427.5,331.3,425.3,331.3z"/>
	</g>
	<path id="XMLID_11_" d="M368.1,320.3v7.8h-19.6v2.5v2.9v3.4h2.2h8.7h2.5c4.6,0,8.3,3.7,8.3,8.3v2.9v2.3v2c0,4.6-3.7,8.3-8.3,8.3
		h-22.8V353h22.5v-2.5v-2.3v-3.4h-2.2h-8.7h-2.5c-4.6,0-8.3-3.7-8.3-8.3v-2.9v-2.9v-2c0-4.6,3.7-8.3,8.3-8.3h19.9V320.3z"/>
	<path id="XMLID_10_" d="M413.1,360.8h-19.9c-4.6,0-8.3-3.7-8.3-8.3v-5.3v-13.3v-5.3c0-4.6,3.7-8.3,8.3-8.3h19.9v7.8h-19.6v5.8v3.2
		h19.6v7.8h-19.6v2.2v5.8h19.6V360.8z"/>
	<path id="XMLID_9_" d="M278.7,360.8h-19.9c-4.6,0-8.3-3.7-8.3-8.3v-5.3v-13.3v-5.3c0-4.6,3.7-8.3,8.3-8.3h19.9v7.8h-19.6v5.8v3.2
		h19.6v7.8h-19.6v2.2v5.8h19.6V360.8z"/>
	<path id="XMLID_8_" d="M164.3,320.3h4.3h14.6c4.6,0,8.3,3.7,8.3,8.3v32.3h-8.6v-32.7h-14.3v32.7H160v-40.5L164.3,320.3L164.3,320.3
		z"/>
	<path id="XMLID_19_" d="M318.9,344.5c4.1-0.5,7.1-3.6,7.1-7.8v-1.1v-6.4l0,0v-0.6c0-4.6-3.3-7.6-7.9-7.6h-15.5h-4.4H293v39h9v-15
		h8.5l7,15h9.6L318.9,344.5z M317,329.7v5.9v2.4h-15v-10h15V329.7z"/>
	<polygon id="XMLID_5_" points="211.1,320.3 220.7,354 230.8,320.3 240.6,320.3 227.5,360.8 214,360.8 201.5,320.3 	"/>
	<path id="XMLID_2_" d="M70,328.6c0-4.6,3.7-8.3,8.3-8.3h21.3v7.8h-21V353h21v7.8H78.3c-4.6,0-8.3-3.7-8.3-8.3V328.6L70,328.6z"/>
	<path id="XMLID_16_" d="M138.6,321H121c-4.6,0-9,3-9,7.6v24c0,4.6,4.4,7.5,9,7.5h17.7c4.6,0,8.4-2.9,8.4-7.5v-24
		C147,324,143.2,321,138.6,321z M138,353h-18v-25h18V353z"/>
</g>
</svg>
