<?xml version="1.0" encoding="utf-8"?>
<!-- Generator: Adobe Illustrator 19.0.0, SVG Export Plug-In . SVG Version: 6.00 Build 0)  -->
<svg version="1.1" id="Layer_1" xmlns="http://www.w3.org/2000/svg" xmlns:xlink="http://www.w3.org/1999/xlink" x="0px" y="0px"
	 viewBox="0 0 500 500" style="enable-background:new 0 0 500 500;" xml:space="preserve">

<g id="XMLID_29_">
	<path id="XMLID_37_" class="st0" d="M372.1,265l13.4-23.1l1.7-27.9l-3,0l-37,63.8l1.6,2.7L372.1,265z M375.3,270.4l-25.1,12.6
		l1.6,2.7l73.8,0.1l1.5-2.6l-25.2-12.8L375.3,270.4z M393.2,214l-3.2,0l1.6,27.9l13.3,23.1l23.5,15.8l1.7-2.8L393.2,214z"/>
	<path id="XMLID_40_" class="st1" d="M288.6,258.8l0,9.5c0,11.1-7.7,17.4-18.3,17.7H268c-10.7-0.4-18.2-6.7-18.2-17.7v-9.5
		c0-11.2,7.7-17.3,18.4-17.6c0.5,0,1.6,0,2.1,0C281.1,241.4,288.7,247.7,288.6,258.8 M268.5,250.3c-4.2,0.2-8.2,2.4-8.2,8.5v9.5
		c0,5.8,4,8.2,8.2,8.4c0.2,0,1.3,0,1.5,0c4.1-0.2,8.2-2.5,8.2-8.4l0-9.5c0-6-4.1-8.2-8.3-8.5C269.4,250.3,269,250.3,268.5,250.3"/>
	<path id="XMLID_41_" class="st1" d="M304.7,259.9c0,0,15.6-17.8,16.6-18.8l13.1,0l-19,21.5l19.9,22.1l-13.2,0l-17.4-19.3l0,19.3
		l-10.5,0l0.1-54.2l10.5,0L304.7,259.9z"/>
	<path id="XMLID_44_" class="st1" d="M155.9,266.3l0-7.7c0-11.1-7.8-17.4-18.4-17.8l-2,0c-10.7,0.3-18.4,6.5-18.4,17.7l0,9.5
		c0,10.6,7.9,17.2,18.1,17.7c1.1,0,1.7,0,2.4,0c12.8,0,17.6-6.5,18.2-13.9l-9.6,0c-0.3,1.4-0.7,5-8.8,5c-1.4,0-3.4-0.4-4.8-0.8
		c-6-2-5-9.4-5-9.8L155.9,266.3z M127.5,257.8c0-5.7,3.8-8,8.3-8.1c0.5,0,1,0,1.4,0c4.6,0.2,8.4,2.6,8.4,8.2v0.7l-18.1,0
		L127.5,257.8z"/>
	<path id="XMLID_48_" class="st1" d="M200,266.3l0-7.7c0-11.1-7.8-17.4-18.4-17.8h-2c-10.8,0.3-18.4,6.5-18.4,17.7l0,9.5
		c0,10.6,7.9,17.2,18.1,17.7c1.1,0,1.7,0,2.4,0c12.8,0,17.6-6.5,18.2-13.9l-9.6,0c-0.3,1.4-0.7,5-8.9,5c-1.4,0-3.3-0.4-4.7-0.8
		c-6-2-5-9.4-5-9.8L200,266.3z M171.6,257.9c0-5.7,3.8-8,8.3-8.2c0.5,0,1,0,1.4,0c4.6,0.2,8.4,2.6,8.4,8.2v0.7l-18.1,0L171.6,257.9z
		"/>
	<path id="XMLID_54_" class="st1" d="M226.2,241.1c-4.9,0-8.2,1.3-10.1,2.9l0-13.6l-10.4,0l-0.1,54.2h1.8c0,0,4.6-2.6,4.9-2.7
		c0.7,0.7,5.2,4.1,11.6,4.1c0.8,0,1.5,0.1,2.3,0c10.6-0.2,18.2-6.8,18.2-17.7l0-9.5C244.5,248.2,236.8,241.1,226.2,241.1 M234,268.3
		c0,5.9-4.1,8.2-8.2,8.4c-0.2,0-1.3,0-1.5,0c-4.2-0.3-8.2-2.6-8.2-8.4l0-9.5c0-6.1,4-8.2,8.2-8.5c0.5,0,1-0.1,1.5,0
		c4.1,0.3,8.2,2.5,8.2,8.5L234,268.3z"/>
	<path id="XMLID_61_" class="st1" d="M115.8,284.4L95.7,262c1,0.1,2,0.1,3,0.1c6.9,0,15.5-4.3,15.5-15.4c0-13.2-11-16.6-20.7-16.6
		l-23.4-0.1L70,284.3l10.6,0v-24.2l21.8,24.2L115.8,284.4z M80.7,239.4l12.7,0c5.9,0,11.1,1.9,11.1,7.4c0,5.6-3.3,7.6-11.1,7.6
		l-12.7,0L80.7,239.4z"/>
</g>
</svg>
