<?xml version="1.0" encoding="utf-8"?>
<!-- Generator: Adobe Illustrator 19.0.0, SVG Export Plug-In . SVG Version: 6.00 Build 0)  -->
<svg version="1.1" id="Layer_1" xmlns="http://www.w3.org/2000/svg" xmlns:xlink="http://www.w3.org/1999/xlink" x="0px" y="0px"
	 viewBox="0 0 500 500" style="enable-background:new 0 0 500 500;" xml:space="preserve">

<g id="XMLID_1_">
	<path id="XMLID_3_" class="st0" d="M424.1,187.2c-2.5,6,2.4,15.4-4.7,17.2l-220.8-0.7l-23.4,0.5l-3.3,5.1l-27.6,104.8l-3.8,1.7
		l-37.3-0.7l-3.5-7.3c-10.4-42.7-22.1-84.8-32.1-127.5c9.6-1.3,20.7-2,30.4,0.1c10.1,31.2,14.7,64.5,23.5,96.8l1.2,0.9l2.7-3.1
		l23.8-93.2l2.7-2.2l250.8,0.4C409.7,182.3,424.7,175,424.1,187.2"/>
	<path id="XMLID_4_" class="st0" d="M424.4,227.5c0.6,7-6.1,13.4-10.9,17.5c-9.1-4-20.3-12.4-31.5-6.3c-3.5,2.6-5.9,7.3-3.4,11.2
		c15.5,11.6,43.1,5.3,48.9,28.7c2.9,10.1,0.6,23-7.4,30.2c-12.9,12-31.6,14.6-49.6,9.4c-7.9-3.5-16.7-5.9-23.6-12.2
		c2.6-7.2,7.3-13.3,12.2-18.7c10.1,2.5,18.8,10.6,31.2,9.2c4.1-0.1,9.3-2.9,11.3-7.3c1.5-17.5-20.9-10.7-31.1-15.7
		C360,271,351.8,262,349.7,252c-2-10.5,0.9-20.5,8.9-27.2C377.2,212.1,406.6,214.1,424.4,227.5"/>
	<path id="XMLID_5_" class="st0" d="M339.1,222.4c0.7,30,0.6,61.2-0.2,91.1c-9.7,2.5-20.6,0.3-30.8,0.3c-8.3-13.8-13.3-27-22.8-40.9
		c-1.2-0.5-1.7,1.1-2.6,1.4l-0.8,38.6c-6.5,3.5-15.6,0.3-23.1,1.7l-1.6-5.1c0.3-28.3-0.8-59.2,1.5-86.9c8.4-1.8,17.8-1.8,27.2-1.4
		l2.7,1.9l21.1,37.9l2.9-0.6c-0.7-11.2,1.7-25.3,1.1-37.7C320.8,219.6,331.3,221.3,339.1,222.4"/>
	<path id="XMLID_8_" class="st0" d="M210.5,271.6c-0.6-7.4-3.7-14.6-6.8-21.1c-4.2,5.8-4.1,14-5.9,20.9
		C201.3,274.5,206.7,273,210.5,271.6 M232.9,245.1l16.9,68.3c-7.2,2.7-16.5,0.7-24.7,0.8c-4.1-5.7-1.5-16.5-10.8-17.7
		c-8.7,0.5-19.9-2.9-25.8,4l-4,14c-7.9,1-17.3,1.1-24.6-0.8c7.9-30.9,17-61.4,26.5-91.8c11.7-2.3,26.8-1.4,39,0L232.9,245.1z"/>
	<path id="XMLID_13_" class="st0" d="M428.3,211.7c-0.2-0.1-0.5-0.1-0.8-0.1h-0.3v1.5h0.5c0.3,0,0.6-0.1,0.8-0.2
		c0.2-0.1,0.3-0.4,0.3-0.6C428.7,212,428.5,211.8,428.3,211.7 M425.8,215.9v-5.2c0.3,0,0.8,0,1.4,0c0.6,0,1,0,1.1,0
		c0.4,0,0.8,0.1,1,0.3c0.5,0.2,0.7,0.7,0.7,1.2c0,0.4-0.1,0.8-0.4,0.9c-0.2,0.2-0.5,0.3-0.9,0.3c0.3,0.1,0.6,0.2,0.7,0.3
		c0.3,0.3,0.5,0.7,0.5,1.2l0,0.5c0,0.1,0,0.1,0,0.2l0,0.1l0,0.2l-1.3,0c0-0.1-0.1-0.4-0.1-0.7c0-0.3,0-0.5-0.1-0.6
		c-0.1-0.2-0.2-0.3-0.4-0.4c-0.1,0-0.3-0.1-0.5-0.1h-0.3l-0.3,0v1.8L425.8,215.9z M425.1,210.6c-0.7,0.7-1.1,1.6-1.1,2.7
		c0,1.1,0.4,2,1.1,2.7c0.8,0.8,1.6,1.1,2.7,1.1c1.1,0,2-0.4,2.7-1.1c0.7-0.8,1.1-1.7,1.1-2.7c0-1.1-0.4-2-1.1-2.7
		c-0.8-0.8-1.7-1.2-2.7-1.2C426.8,209.4,425.9,209.8,425.1,210.6 M431.1,216.6c-0.9,0.9-2,1.3-3.3,1.3c-1.3,0-2.4-0.5-3.3-1.3
		c-0.9-0.9-1.3-2-1.3-3.3c0-1.4,0.5-2.5,1.5-3.4c0.9-0.9,2-1.3,3.2-1.3c1.3,0,2.4,0.5,3.3,1.4c0.9,0.9,1.4,2,1.4,3.3
		C432.5,214.6,432,215.7,431.1,216.6"/>
</g>
</svg>
